<mxfile host="app.diagrams.net" agent="Mozilla/5.0 (Windows NT 10.0; Win64; x64) AppleWebKit/537.36 (KHTML, like Gecko) Chrome/131.0.0.0 Safari/537.36" version="26.0.6">
  <diagram name="Page-1" id="oI-owTLchYByyxL44gYu">
    <mxGraphModel dx="859" dy="460" grid="1" gridSize="10" guides="1" tooltips="1" connect="1" arrows="1" fold="1" page="1" pageScale="1" pageWidth="1169" pageHeight="827" math="0" shadow="0">
      <root>
        <mxCell id="0" />
        <mxCell id="1" parent="0" />
        <mxCell id="H8bDsPp7IfST7IvYiTtH-1" value="&lt;b&gt;PowerSupplyingPart Specification Behavioral Model&lt;/b&gt;" style="text;fontSize=16;verticalAlign=middle;strokeColor=none;fillColor=none;whiteSpace=wrap;html=1;" parent="1" vertex="1">
          <mxGeometry x="40" y="40" width="430" height="30" as="geometry" />
        </mxCell>
        <mxCell id="H8bDsPp7IfST7IvYiTtH-2" value="" style="dashed=0;shape=line;strokeWidth=2;noLabel=1;strokeColor=#0C8CF2;opacity=50;" parent="1" vertex="1">
          <mxGeometry x="40" y="65" width="400" height="10" as="geometry" />
        </mxCell>
        <mxCell id="H8bDsPp7IfST7IvYiTtH-3" value="" style="ellipse;html=1;shape=startState;fillColor=#000000;strokeColor=#ff0000;" parent="1" vertex="1">
          <mxGeometry x="335" y="290" width="30" height="30" as="geometry" />
        </mxCell>
        <mxCell id="H8bDsPp7IfST7IvYiTtH-4" value="" style="edgeStyle=orthogonalEdgeStyle;html=1;verticalAlign=bottom;endArrow=open;endSize=8;strokeColor=#ff0000;rounded=0;entryX=0.399;entryY=0.011;entryDx=0;entryDy=0;entryPerimeter=0;" parent="1" source="H8bDsPp7IfST7IvYiTtH-3" edge="1" target="H8bDsPp7IfST7IvYiTtH-21">
          <mxGeometry relative="1" as="geometry">
            <mxPoint x="350" y="370" as="targetPoint" />
          </mxGeometry>
        </mxCell>
        <mxCell id="H8bDsPp7IfST7IvYiTtH-5" style="rounded=0;orthogonalLoop=1;jettySize=auto;html=1;entryX=0;entryY=0.25;entryDx=0;entryDy=0;endArrow=open;endFill=0;elbow=vertical;curved=1;exitX=0.5;exitY=0;exitDx=0;exitDy=0;" parent="1" source="H8bDsPp7IfST7IvYiTtH-21" target="H8bDsPp7IfST7IvYiTtH-13" edge="1">
          <mxGeometry relative="1" as="geometry">
            <Array as="points">
              <mxPoint x="450" y="280" />
            </Array>
            <mxPoint x="368.18181818181824" y="370" as="sourcePoint" />
          </mxGeometry>
        </mxCell>
        <mxCell id="H8bDsPp7IfST7IvYiTtH-6" value="&lt;span style=&quot;font-size: 12px; text-align: left; text-wrap-mode: wrap;&quot;&gt;startSupplying&amp;nbsp;&lt;/span&gt;[SoC &amp;gt; 0]" style="edgeLabel;html=1;align=center;verticalAlign=middle;resizable=0;points=[];labelBackgroundColor=none;" parent="H8bDsPp7IfST7IvYiTtH-5" vertex="1" connectable="0">
          <mxGeometry x="-0.204" y="-25" relative="1" as="geometry">
            <mxPoint x="3" y="-29" as="offset" />
          </mxGeometry>
        </mxCell>
        <mxCell id="H8bDsPp7IfST7IvYiTtH-7" style="rounded=0;orthogonalLoop=1;jettySize=auto;html=1;entryX=0;entryY=0.5;entryDx=0;entryDy=0;curved=1;endArrow=open;endFill=0;exitX=0.46;exitY=0.994;exitDx=0;exitDy=0;exitPerimeter=0;" parent="1" source="H8bDsPp7IfST7IvYiTtH-21" target="H8bDsPp7IfST7IvYiTtH-20" edge="1">
          <mxGeometry relative="1" as="geometry">
            <Array as="points">
              <mxPoint x="390" y="590" />
            </Array>
            <mxPoint x="349" y="410" as="sourcePoint" />
          </mxGeometry>
        </mxCell>
        <mxCell id="H8bDsPp7IfST7IvYiTtH-8" value="startCharging [SoC &amp;lt; MaxCharge]" style="edgeLabel;html=1;align=center;verticalAlign=middle;resizable=0;points=[];labelBackgroundColor=none;" parent="H8bDsPp7IfST7IvYiTtH-7" vertex="1" connectable="0">
          <mxGeometry x="-0.2886" y="16" relative="1" as="geometry">
            <mxPoint x="26" y="17" as="offset" />
          </mxGeometry>
        </mxCell>
        <mxCell id="H8bDsPp7IfST7IvYiTtH-9" style="rounded=0;orthogonalLoop=1;jettySize=auto;html=1;entryX=0.5;entryY=0;entryDx=0;entryDy=0;curved=0;endArrow=none;endFill=0;startArrow=open;startFill=0;" parent="1" source="H8bDsPp7IfST7IvYiTtH-13" target="H8bDsPp7IfST7IvYiTtH-20" edge="1">
          <mxGeometry relative="1" as="geometry">
            <Array as="points" />
          </mxGeometry>
        </mxCell>
        <mxCell id="H8bDsPp7IfST7IvYiTtH-10" value="startSupplying" style="edgeLabel;html=1;align=center;verticalAlign=middle;resizable=0;points=[];labelBackgroundColor=none;" parent="H8bDsPp7IfST7IvYiTtH-9" vertex="1" connectable="0">
          <mxGeometry x="-0.1328" y="-16" relative="1" as="geometry">
            <mxPoint x="-24" as="offset" />
          </mxGeometry>
        </mxCell>
        <mxCell id="H8bDsPp7IfST7IvYiTtH-11" style="rounded=0;orthogonalLoop=1;jettySize=auto;html=1;exitX=0.25;exitY=1;exitDx=0;exitDy=0;entryX=1;entryY=0.25;entryDx=0;entryDy=0;endArrow=open;endFill=0;curved=1;" parent="1" source="H8bDsPp7IfST7IvYiTtH-13" target="H8bDsPp7IfST7IvYiTtH-21" edge="1">
          <mxGeometry relative="1" as="geometry">
            <Array as="points">
              <mxPoint x="600" y="410" />
            </Array>
          </mxGeometry>
        </mxCell>
        <mxCell id="H8bDsPp7IfST7IvYiTtH-12" value="stopSupplying" style="edgeLabel;html=1;align=center;verticalAlign=middle;resizable=0;points=[];labelBackgroundColor=none;" parent="H8bDsPp7IfST7IvYiTtH-11" vertex="1" connectable="0">
          <mxGeometry x="-0.0011" y="-14" relative="1" as="geometry">
            <mxPoint x="-19" y="-23" as="offset" />
          </mxGeometry>
        </mxCell>
        <mxCell id="H8bDsPp7IfST7IvYiTtH-13" value="&lt;p style=&quot;margin:0px;margin-top:4px;text-align:center;&quot;&gt;&lt;b&gt;&lt;br&gt;&lt;/b&gt;&lt;/p&gt;&lt;p style=&quot;margin:0px;margin-top:4px;text-align:center;&quot;&gt;&lt;b&gt;Supplying&lt;/b&gt;&lt;/p&gt;&lt;p style=&quot;margin:0px;margin-left:4px;&quot;&gt;&lt;br&gt;&lt;/p&gt;&lt;p style=&quot;margin:0px;margin-left:4px;&quot;&gt;&lt;br&gt;&lt;/p&gt;" style="verticalAlign=top;align=left;overflow=fill;html=1;whiteSpace=wrap;rounded=1;" parent="1" vertex="1">
          <mxGeometry x="590" y="270" width="160" height="60" as="geometry" />
        </mxCell>
        <mxCell id="H8bDsPp7IfST7IvYiTtH-14" style="rounded=0;orthogonalLoop=1;jettySize=auto;html=1;entryX=0.75;entryY=1;entryDx=0;entryDy=0;endArrow=none;endFill=0;curved=1;exitX=0.75;exitY=0;exitDx=0;exitDy=0;startArrow=open;startFill=0;" parent="1" source="H8bDsPp7IfST7IvYiTtH-20" target="H8bDsPp7IfST7IvYiTtH-13" edge="1">
          <mxGeometry relative="1" as="geometry">
            <Array as="points">
              <mxPoint x="800" y="430" />
            </Array>
          </mxGeometry>
        </mxCell>
        <mxCell id="H8bDsPp7IfST7IvYiTtH-15" value="&lt;span style=&quot;&quot;&gt;startCharging&lt;/span&gt;" style="edgeLabel;html=1;align=center;verticalAlign=middle;resizable=0;points=[];labelBackgroundColor=none;" parent="H8bDsPp7IfST7IvYiTtH-14" vertex="1" connectable="0">
          <mxGeometry x="0.3499" y="40" relative="1" as="geometry">
            <mxPoint x="48" y="4" as="offset" />
          </mxGeometry>
        </mxCell>
        <mxCell id="H8bDsPp7IfST7IvYiTtH-16" style="rounded=0;orthogonalLoop=1;jettySize=auto;html=1;entryX=1;entryY=0.75;entryDx=0;entryDy=0;curved=1;endArrow=open;endFill=0;" parent="1" source="H8bDsPp7IfST7IvYiTtH-20" target="H8bDsPp7IfST7IvYiTtH-21" edge="1">
          <mxGeometry relative="1" as="geometry">
            <Array as="points">
              <mxPoint x="600" y="460" />
            </Array>
            <mxPoint x="400" y="390" as="targetPoint" />
          </mxGeometry>
        </mxCell>
        <mxCell id="H8bDsPp7IfST7IvYiTtH-17" value="&lt;div style=&quot;text-align: left;&quot;&gt;&lt;span style=&quot;font-size: 12px; text-wrap-mode: wrap;&quot;&gt;stopCharging&lt;/span&gt;&lt;/div&gt;" style="edgeLabel;html=1;align=center;verticalAlign=middle;resizable=0;points=[];labelBackgroundColor=none;" parent="H8bDsPp7IfST7IvYiTtH-16" vertex="1" connectable="0">
          <mxGeometry x="-0.0983" y="8" relative="1" as="geometry">
            <mxPoint x="-47" y="22" as="offset" />
          </mxGeometry>
        </mxCell>
        <mxCell id="H8bDsPp7IfST7IvYiTtH-18" style="rounded=0;orthogonalLoop=1;jettySize=auto;html=1;exitX=0.018;exitY=0.039;exitDx=0;exitDy=0;entryX=0.975;entryY=0.975;entryDx=0;entryDy=0;curved=1;endArrow=open;endFill=0;entryPerimeter=0;exitPerimeter=0;" parent="1" source="H8bDsPp7IfST7IvYiTtH-20" target="H8bDsPp7IfST7IvYiTtH-21" edge="1">
          <mxGeometry relative="1" as="geometry" />
        </mxCell>
        <mxCell id="H8bDsPp7IfST7IvYiTtH-19" value="&amp;nbsp;[SoC = MaxCharge]" style="edgeLabel;html=1;align=center;verticalAlign=middle;resizable=0;points=[];labelBackgroundColor=none;" parent="H8bDsPp7IfST7IvYiTtH-18" vertex="1" connectable="0">
          <mxGeometry x="-0.0222" relative="1" as="geometry">
            <mxPoint x="-50" y="19" as="offset" />
          </mxGeometry>
        </mxCell>
        <mxCell id="H8bDsPp7IfST7IvYiTtH-20" value="&lt;p style=&quot;margin:0px;margin-top:4px;text-align:center;&quot;&gt;&lt;b&gt;&lt;br&gt;&lt;/b&gt;&lt;/p&gt;&lt;p style=&quot;margin:0px;margin-top:4px;text-align:center;&quot;&gt;&lt;b&gt;Charging&lt;/b&gt;&lt;/p&gt;&lt;div&gt;&lt;p style=&quot;margin: 0px 0px 0px 4px;&quot;&gt;&lt;br&gt;&lt;/p&gt;&lt;/div&gt;&lt;p style=&quot;margin: 0px 0px 0px 4px;&quot;&gt;&lt;br&gt;&lt;/p&gt;" style="verticalAlign=top;align=left;overflow=fill;html=1;whiteSpace=wrap;rounded=1;" parent="1" vertex="1">
          <mxGeometry x="590" y="550" width="160" height="60" as="geometry" />
        </mxCell>
        <mxCell id="H8bDsPp7IfST7IvYiTtH-21" value="&lt;p style=&quot;margin:0px;margin-top:4px;text-align:center;&quot;&gt;&lt;b&gt;Idle&lt;/b&gt;&lt;/p&gt;&lt;hr size=&quot;1&quot; style=&quot;border-style:solid;&quot;&gt;&lt;p style=&quot;margin: 0px 0px 0px 4px;&quot;&gt;startSupplying [SoC = 0]/&lt;/p&gt;&lt;p style=&quot;margin: 0px 0px 0px 4px;&quot;&gt;&lt;span style=&quot;color: light-dark(rgb(0, 0, 0), rgb(255, 255, 255)); background-color: transparent;&quot;&gt;startCharging&lt;/span&gt;&lt;span style=&quot;text-align: center; text-wrap-mode: nowrap; background-color: rgb(255, 255, 255);&quot;&gt;&amp;nbsp;[SoC = MaxCharge]/&lt;/span&gt;&lt;/p&gt;&lt;p style=&quot;margin: 0px 0px 0px 4px;&quot;&gt;&lt;br&gt;&lt;/p&gt;&lt;p style=&quot;margin:0px;margin-left:4px;&quot;&gt;&lt;br&gt;&lt;/p&gt;&lt;p style=&quot;margin:0px;margin-left:4px;&quot;&gt;&lt;br&gt;&lt;/p&gt;" style="verticalAlign=top;align=left;overflow=fill;html=1;whiteSpace=wrap;rounded=1;" parent="1" vertex="1">
          <mxGeometry x="270" y="380" width="200" height="80" as="geometry" />
        </mxCell>
        <mxCell id="H8bDsPp7IfST7IvYiTtH-22" style="rounded=0;orthogonalLoop=1;jettySize=auto;html=1;entryX=0.988;entryY=0.066;entryDx=0;entryDy=0;entryPerimeter=0;curved=1;endArrow=open;endFill=0;exitX=0.015;exitY=0.941;exitDx=0;exitDy=0;exitPerimeter=0;" parent="1" source="H8bDsPp7IfST7IvYiTtH-13" target="H8bDsPp7IfST7IvYiTtH-21" edge="1">
          <mxGeometry relative="1" as="geometry" />
        </mxCell>
        <mxCell id="H8bDsPp7IfST7IvYiTtH-23" value="[SoC = 0]" style="edgeLabel;html=1;align=center;verticalAlign=middle;resizable=0;points=[];labelBackgroundColor=none;" parent="H8bDsPp7IfST7IvYiTtH-22" vertex="1" connectable="0">
          <mxGeometry x="-0.0291" y="-1" relative="1" as="geometry">
            <mxPoint x="-19" y="-16" as="offset" />
          </mxGeometry>
        </mxCell>
      </root>
    </mxGraphModel>
  </diagram>
</mxfile>
